<?xml version="1.0" encoding="utf-8" standalone="yes"?>
<!DOCTYPE svg PUBLIC "-//W3C//DTD SVG 1.1//EN" "http://www.w3.org/Graphics/SVG/1.1/DTD/svg11.dtd">
<svg xmlns="http://www.w3.org/2000/svg" xmlns:xlink="http://www.w3.org/1999/xlink" xmlns:dc="http://purl.org/dc/elements/1.1/" xmlns:cc="http://web.resource.org/cc/" xmlns:rdf="http://www.w3.org/1999/02/22-rdf-syntax-ns#" xmlns:sodipodi="http://sodipodi.sourceforge.net/DTD/sodipodi-0.dtd" xmlns:inkscape="http://www.inkscape.org/namespaces/inkscape" version="1.1" baseProfile="full" width="70px" height="84px" viewBox="0 0 500 600" preserveAspectRatio="xMidYMid meet" id="svg_document" style="zoom: 1;"><title id="svg_document_title">Untitled.svg</title><path d="M481.421021,139.707001 c-0.085,-1.003 -0.149,-2.005 -0.555,-2.987 c-0.107,-0.256 -0.32,-0.427 -0.448,-0.683 c-0.277,-0.533 -0.597,-0.981 -0.96,-1.472 c-0.725,-1.003 -1.536,-1.835 -2.517,-2.517 c-0.256,-0.171 -0.363,-0.491 -0.64,-0.64 l-224,-128 c-3.285,-1.877 -7.296,-1.877 -10.581,0 l-224,128 c-0.256,0.171 -0.363,0.469 -0.619,0.64 c-1.024,0.704 -1.899,1.557 -2.645,2.624 c-0.299,0.427 -0.597,0.811 -0.832,1.28 c-0.149,0.277 -0.384,0.469 -0.512,0.768 c-0.469,1.173 -0.619,2.389 -0.661,3.584 c0,0.128 -0.107,0.256 -0.107,0.384 v0.171 c0,0.021 0,0.021 0,0.043 v234.304 c0,0.021 0,0.064 0,0.085 v0.064 c0,0.213 0.149,0.405 0.171,0.619 c0.085,1.493 0.32,2.987 1.045,4.352 c0.043,0.085 0.128,0.107 0.171,0.192 c0.277,0.491 0.768,0.811 1.131,1.259 c0.789,0.981 1.557,1.941 2.603,2.603 c0.107,0.064 0.149,0.192 0.235,0.235 l224,128 c1.664,0.939 3.477,1.408 5.312,1.408 s3.648,-0.469 5.291,-1.408 l224,-128 c0.107,-0.064 0.149,-0.192 0.256,-0.256 c0.981,-0.597 1.664,-1.493 2.411,-2.389 c0.427,-0.512 1.003,-0.896 1.323,-1.472 c0.043,-0.064 0.107,-0.107 0.149,-0.171 c0.576,-1.109 0.683,-2.325 0.853,-3.52 c0.064,-0.491 0.384,-0.939 0.384,-1.451 V140.688004 C481.677002,140.347 481.442993,140.048004 481.421021,139.707001  z M446.52002,138.981003 l-78.251,31.296 L282.210999,45.093002 L446.52002,138.981003  z M247.010986,31.503998 l97.067,141.184 H149.944 L247.010986,31.503998  z M211.747009,45.115005 l-86.037,125.163 L47.479996,138.981003 L211.747009,45.115005  z M33.677002,156.432007 l80.768,32.32 L33.677002,334.160004 V156.432007  z M129.63501,205.391998 l98.325,178.773 L40.248001,366.287994 L129.63501,205.391998  z M236.343994,484.964966 l-165.12,-94.336 l165.12,15.573 V484.964966  z M247.010986,374.544006 l-99.285,-180.523 h198.571 L247.010986,374.544006  z M257.677002,484.964966 v-78.571 l165.035,-15.723 L257.677002,484.964966  z M265.997009,384.356995 l98.411,-178.901 l89.365,160.853 L265.997009,384.356995  z M460.343994,334.203003 l-80.811,-145.451 l80.811,-32.32 V334.203003  z M276,179 C276,179 276,179 276,179 C276,179 568,453 568,453 " id="path1" fill="white"></path><text stroke="none" style="outline-style: none;" id="text1" stroke-width="1px" x="245px" text-rendering="geometricPrecision" font-family="Helvetica" fill="white" font-size="100px" y="593px" transform="" text-anchor="middle">MEYN</text></svg>